<mxfile host="app.diagrams.net" modified="2022-04-30T02:55:00.868Z" agent="5.0 (Macintosh; Intel Mac OS X 10_15_7) AppleWebKit/605.1.15 (KHTML, like Gecko) Version/15.4 Safari/605.1.15" etag="SanRoyK0HiIPGspBEW8S" version="17.5.0" type="github">
  <diagram name="Page-1" id="03018318-947c-dd8e-b7a3-06fadd420f32">
    <mxGraphModel dx="783" dy="536" grid="1" gridSize="10" guides="1" tooltips="1" connect="1" arrows="1" fold="1" page="1" pageScale="1" pageWidth="1100" pageHeight="850" background="none" math="0" shadow="0">
      <root>
        <mxCell id="0" />
        <mxCell id="1" parent="0" />
        <mxCell id="677b7b8949515195-1" value="" style="whiteSpace=wrap;html=1;rounded=0;shadow=0;labelBackgroundColor=none;strokeColor=#000000;strokeWidth=1;fillColor=none;fontFamily=Verdana;fontSize=12;fontColor=#000000;align=center;comic=1;" parent="1" vertex="1">
          <mxGeometry x="20" y="20" width="1060" height="810" as="geometry" />
        </mxCell>
        <mxCell id="677b7b8949515195-2" value="Duck Hunt" style="whiteSpace=wrap;html=1;rounded=0;shadow=0;labelBackgroundColor=none;strokeWidth=1;fontFamily=Garamond;fontSize=28;align=center;comic=1;" parent="1" vertex="1">
          <mxGeometry x="445" y="40" width="190" height="50" as="geometry" />
        </mxCell>
        <mxCell id="677b7b8949515195-16" value="" style="verticalLabelPosition=bottom;shadow=0;dashed=0;align=center;html=1;verticalAlign=top;strokeWidth=1;shape=mxgraph.mockup.graphics.simpleIcon;strokeColor=#999999;rounded=0;labelBackgroundColor=none;fontFamily=Verdana;fontSize=14;fontColor=#000000;comic=1;" parent="1" vertex="1">
          <mxGeometry x="250" y="110" width="580" height="400" as="geometry" />
        </mxCell>
        <mxCell id="LAOup0nUUW4_yMAqV3xI-1" value="" style="edgeStyle=orthogonalEdgeStyle;rounded=0;orthogonalLoop=1;jettySize=auto;html=1;" edge="1" parent="1">
          <mxGeometry relative="1" as="geometry">
            <mxPoint x="955" y="630" as="sourcePoint" />
            <mxPoint x="945" y="653" as="targetPoint" />
          </mxGeometry>
        </mxCell>
        <mxCell id="LAOup0nUUW4_yMAqV3xI-3" value="" style="triangle;whiteSpace=wrap;html=1;fontFamily=Garamond;rotation=-90;" vertex="1" parent="1">
          <mxGeometry x="350" y="290" width="60" height="80" as="geometry" />
        </mxCell>
        <mxCell id="LAOup0nUUW4_yMAqV3xI-4" value="" style="rounded=0;whiteSpace=wrap;html=1;fontFamily=Garamond;rotation=90;" vertex="1" parent="1">
          <mxGeometry x="345" y="380" width="70" height="20" as="geometry" />
        </mxCell>
        <mxCell id="LAOup0nUUW4_yMAqV3xI-5" value="" style="ellipse;shape=cloud;whiteSpace=wrap;html=1;fontFamily=Garamond;" vertex="1" parent="1">
          <mxGeometry x="295" y="130" width="120" height="80" as="geometry" />
        </mxCell>
        <mxCell id="LAOup0nUUW4_yMAqV3xI-6" value="" style="ellipse;shape=cloud;whiteSpace=wrap;html=1;fontFamily=Garamond;" vertex="1" parent="1">
          <mxGeometry x="610" y="140" width="170" height="70" as="geometry" />
        </mxCell>
        <mxCell id="LAOup0nUUW4_yMAqV3xI-10" value="" style="shape=dataStorage;whiteSpace=wrap;html=1;fixedSize=1;fontFamily=Garamond;rotation=60;" vertex="1" parent="1">
          <mxGeometry x="620" y="415" width="80" height="20" as="geometry" />
        </mxCell>
        <mxCell id="LAOup0nUUW4_yMAqV3xI-11" value="Start" style="rounded=1;whiteSpace=wrap;html=1;fontFamily=Garamond;" vertex="1" parent="1">
          <mxGeometry x="480" y="520" width="120" height="60" as="geometry" />
        </mxCell>
        <mxCell id="LAOup0nUUW4_yMAqV3xI-13" value="&lt;h1&gt;Rules&lt;/h1&gt;&lt;div&gt;Click start to begin a new game. Each game lasts 10 rounds. Click on the duck as it flies across the screen to shoot it. Watch your ammo though! You only have 30 shots for all 10 rounds. If the duck leaves the screen don&#39;t worry! The computer gets those ones (and the points)!&lt;/div&gt;&lt;div&gt;The winner is the player with the most points at the end. Happy hunting.&lt;/div&gt;" style="text;html=1;strokeColor=none;fillColor=none;spacing=5;spacingTop=-20;whiteSpace=wrap;overflow=hidden;rounded=0;fontFamily=Garamond;align=center;" vertex="1" parent="1">
          <mxGeometry x="120" y="110" width="120" height="300" as="geometry" />
        </mxCell>
        <mxCell id="LAOup0nUUW4_yMAqV3xI-14" value="Round 1" style="text;html=1;strokeColor=none;fillColor=none;align=center;verticalAlign=middle;whiteSpace=wrap;rounded=0;fontFamily=Garamond;" vertex="1" parent="1">
          <mxGeometry x="510" y="580" width="60" height="30" as="geometry" />
        </mxCell>
        <mxCell id="LAOup0nUUW4_yMAqV3xI-15" value="" style="rounded=0;whiteSpace=wrap;html=1;fontFamily=Garamond;" vertex="1" parent="1">
          <mxGeometry x="285" y="535" width="120" height="60" as="geometry" />
        </mxCell>
        <mxCell id="LAOup0nUUW4_yMAqV3xI-16" value="" style="rounded=0;whiteSpace=wrap;html=1;fontFamily=Garamond;" vertex="1" parent="1">
          <mxGeometry x="690" y="535" width="120" height="60" as="geometry" />
        </mxCell>
        <mxCell id="LAOup0nUUW4_yMAqV3xI-17" value="Player 1" style="text;html=1;strokeColor=none;fillColor=none;align=center;verticalAlign=middle;whiteSpace=wrap;rounded=0;fontFamily=Garamond;" vertex="1" parent="1">
          <mxGeometry x="315" y="535" width="60" height="30" as="geometry" />
        </mxCell>
        <mxCell id="LAOup0nUUW4_yMAqV3xI-19" value="Points: 0" style="text;html=1;strokeColor=none;fillColor=none;align=center;verticalAlign=middle;whiteSpace=wrap;rounded=0;fontFamily=Garamond;" vertex="1" parent="1">
          <mxGeometry x="285" y="565" width="60" height="30" as="geometry" />
        </mxCell>
        <mxCell id="LAOup0nUUW4_yMAqV3xI-20" value="Ammo: 30" style="text;html=1;strokeColor=none;fillColor=none;align=center;verticalAlign=middle;whiteSpace=wrap;rounded=0;fontFamily=Garamond;" vertex="1" parent="1">
          <mxGeometry x="345" y="565" width="60" height="30" as="geometry" />
        </mxCell>
        <mxCell id="LAOup0nUUW4_yMAqV3xI-21" value="Computer" style="text;html=1;strokeColor=none;fillColor=none;align=center;verticalAlign=middle;whiteSpace=wrap;rounded=0;fontFamily=Garamond;" vertex="1" parent="1">
          <mxGeometry x="720" y="535" width="60" height="30" as="geometry" />
        </mxCell>
        <mxCell id="LAOup0nUUW4_yMAqV3xI-24" value="Points: 0" style="text;html=1;strokeColor=none;fillColor=none;align=center;verticalAlign=middle;whiteSpace=wrap;rounded=0;fontFamily=Garamond;" vertex="1" parent="1">
          <mxGeometry x="690" y="565" width="60" height="30" as="geometry" />
        </mxCell>
        <mxCell id="LAOup0nUUW4_yMAqV3xI-25" value="Ammo: 30" style="text;html=1;strokeColor=none;fillColor=none;align=center;verticalAlign=middle;whiteSpace=wrap;rounded=0;fontFamily=Garamond;" vertex="1" parent="1">
          <mxGeometry x="750" y="565" width="60" height="30" as="geometry" />
        </mxCell>
        <mxCell id="LAOup0nUUW4_yMAqV3xI-26" value="" style="shape=actor;whiteSpace=wrap;html=1;fontFamily=Garamond;" vertex="1" parent="1">
          <mxGeometry x="285" y="420" width="75" height="90" as="geometry" />
        </mxCell>
      </root>
    </mxGraphModel>
  </diagram>
</mxfile>
